<?xml version="1.0" encoding="UTF-8" standalone="no"?>
<!-- Created with Inkscape (http://www.inkscape.org/) -->

<svg
   xmlns:dc="http://purl.org/dc/elements/1.1/"
   xmlns:cc="http://creativecommons.org/ns#"
   xmlns:rdf="http://www.w3.org/1999/02/22-rdf-syntax-ns#"
   xmlns:svg="http://www.w3.org/2000/svg"
   xmlns="http://www.w3.org/2000/svg"
   xmlns:sodipodi="http://sodipodi.sourceforge.net/DTD/sodipodi-0.dtd"
   xmlns:inkscape="http://www.inkscape.org/namespaces/inkscape"
   width="230"
   height="50"
   id="svg6145"
   version="1.1"
   inkscape:version="0.48.4 r9939"
   sodipodi:docname="new_logo_python_tunisia_450x100.svg">
  <defs
     id="defs6147" />
  <sodipodi:namedview
     id="base"
     pagecolor="#ffffff"
     bordercolor="#000000"
     borderopacity="1"
     inkscape:pageopacity="0"
     inkscape:pageshadow="2"
     inkscape:zoom="2.814285"
     inkscape:cx="121.46879"
     inkscape:cy="36.114064"
     inkscape:document-units="px"
     inkscape:current-layer="layer1"
     showgrid="false"
     inkscape:window-width="1317"
     inkscape:window-height="744"
     inkscape:window-x="49"
     inkscape:window-y="24"
     inkscape:window-maximized="1"
     units="px"
     fit-margin-top="0"
     fit-margin-left="0"
     fit-margin-right="0"
     fit-margin-bottom="0" />
  <metadata
     id="metadata6150">
    <rdf:RDF>
      <cc:Work
         rdf:about="">
        <dc:format>image/svg+xml</dc:format>
        <dc:type
           rdf:resource="http://purl.org/dc/dcmitype/StillImage" />
        <dc:title></dc:title>
      </cc:Work>
    </rdf:RDF>
  </metadata>
  <g
     inkscape:label="Layer 1"
     inkscape:groupmode="layer"
     id="layer1"
     transform="translate(0.1063344,-1000.7019)">
    <g
       id="g3310"
       transform="matrix(1.4170853,0,0,1.4170853,-24.243965,-427.24546)">
      <g
         style="fill:#ff0000"
         transform="matrix(0.20319923,0,0,0.20168144,26.248069,1013.2602)"
         id="g6072">
        <path
           inkscape:connector-curvature="0"
           d="m 184.61344,61.929363 c 0,-14.56215 -4.15226,-22.03817 -12.45678,-22.44755 -3.30427,-0.15595 -6.53055,0.37039 -9.66912,1.58878 -2.505,0.89673 -4.19124,1.78372 -5.07823,2.68045 l 0,34.75812 c 5.31216,3.33351 10.02976,4.88329 14.14303,4.63962 8.70415,-0.57508 13.0611,-7.64172 13.0611,-21.21942 z m 10.24419,0.60432 c 0,7.39804 -1.73498,13.53871 -5.22444,18.422 -3.88909,5.5266 -9.27923,8.37275 -16.17042,8.52871 -5.1952,0.1657 -10.54635,-1.46207 -16.05346,-4.87355 l 0,31.590317 -8.90884,-3.17755 0,-70.120567 c 1.46206,-1.79346 3.34325,-3.3335 5.62407,-4.63961 5.30242,-3.08983 11.74524,-4.67861 19.32848,-4.75658 l 0.12671,0.12671 c 6.93018,-0.08773 12.27159,2.75843 16.02422,8.5287 3.4992,5.29267 5.25368,12.07665 5.25368,20.37142 z"
           style="fill:#ff0000;fill-opacity:1"
           id="path6074" />
        <path
           inkscape:connector-curvature="0"
           d="m 249.30487,83.265743 c 0,9.92254 -0.9942,16.794237 -2.9826,20.615097 -1.99816,3.82086 -5.79952,6.8717 -11.41385,9.14277 -4.55189,1.79346 -9.47417,2.76817 -14.75709,2.93387 l -1.47181,-5.61432 c 5.37064,-0.73103 9.15252,-1.46207 11.34561,-2.1931 4.31796,-1.46206 7.28108,-3.70389 8.90884,-6.706 1.30611,-2.446517 1.94942,-7.115367 1.94942,-14.026057 l 0,-2.3198 c -6.09193,2.76817 -12.47628,4.14251 -19.15303,4.14251 -4.38619,0 -8.25579,-1.37434 -11.58929,-4.14251 -3.74289,-3.01186 -5.61433,-6.83272 -5.61433,-11.46258 l 0,-37.07793 8.90884,-3.05084 0,37.3216 c 0,3.98656 1.28662,7.0569 3.85985,9.21101 2.57323,2.1541 5.90674,3.18729 9.99077,3.10932 4.08403,-0.08773 8.46047,-1.66676 13.10983,-4.75658 l 0,-43.54025 8.90884,0 0,48.41379 z"
           style="fill:#ff0000;fill-opacity:1"
           id="path6076" />
        <path
           inkscape:connector-curvature="0"
           d="m 284.08249,88.997033 c -1.06243,0.08772 -2.03714,0.12671 -2.93387,0.12671 -5.03925,0 -8.96733,-1.19889 -11.77449,-3.60642 -2.79742,-2.40753 -4.20099,-5.73129 -4.20099,-9.97127 l 0,-35.08953 -6.10168,0 0,-5.60457 6.10168,0 0,-14.88381 8.89909,-3.16781 0,18.05162 10.01026,0 0,5.60457 -10.01026,0 0,34.84585 c 0,3.34325 0.89673,5.71179 2.6902,7.09588 1.54004,1.14041 3.98656,1.79347 7.32006,1.95917 l 0,4.63961 z"
           style="fill:#ff0000;fill-opacity:1"
           id="path6078" />
        <path
           inkscape:connector-curvature="0"
           d="m 338.02288,88.266003 -8.90884,0 0,-34.38773 c 0,-3.49921 -0.81876,-6.51106 -2.44651,-9.02581 -1.88119,-2.84615 -4.49342,-4.26923 -7.84641,-4.26923 -4.08404,0 -9.19152,2.15411 -15.32242,6.46233 l 0,41.22044 -8.90885,0 0,-82.1972101 8.90885,-2.80716 0,37.4385701 c 5.6923,-4.14251 11.91093,-6.21864 18.66566,-6.21864 4.7176,0 8.53846,1.58877 11.46258,4.75658 2.93388,3.1678 4.39594,7.11537 4.39594,11.83296 l 0,37.1949 0,0 z"
           style="fill:#ff0000;fill-opacity:1"
           id="path6080" />
        <path
           inkscape:connector-curvature="0"
           d="m 385.37424,60.525783 c 0,-5.59483 -1.06242,-10.21495 -3.17755,-13.87011 -2.51474,-4.45442 -6.42332,-6.80347 -11.70625,-7.04715 -9.76658,0.56534 -14.64012,7.56375 -14.64012,20.97574 0,6.15042 1.01369,11.28713 3.06057,15.41015 2.61223,5.25368 6.53056,7.84641 11.755,7.75869 9.80557,-0.07798 14.70835,-7.81717 14.70835,-23.22732 z m 9.75685,0.05848 c 0,7.96338 -2.03714,14.5914 -6.10168,19.88407 -4.47391,5.92623 -10.65357,8.89909 -18.53897,8.89909 -7.81716,0 -13.90909,-2.97286 -18.30503,-8.89909 -3.98656,-5.29267 -5.97497,-11.92069 -5.97497,-19.88407 0,-7.48576 2.15411,-13.78238 6.46232,-18.90935 4.5519,-5.43888 10.53661,-8.16806 17.93464,-8.16806 7.39805,0 13.42174,2.72918 18.06137,8.16806 4.3082,5.12697 6.46232,11.42359 6.46232,18.90935 z"
           style="fill:#ff0000;fill-opacity:1"
           id="path6082" />
        <path
           inkscape:connector-curvature="0"
           d="m 446.20583,88.266003 -8.90884,0 0,-36.33715 c 0,-3.98656 -1.19889,-7.09588 -3.59667,-9.33772 -2.39779,-2.23208 -5.59483,-3.31401 -9.58139,-3.22628 -4.23023,0.07798 -8.25579,1.46206 -12.07664,4.14251 l 0,44.75864 -8.90884,0 0,-45.86006 c 5.12697,-3.73313 9.84456,-6.16991 14.15276,-7.31032 4.06455,-1.06243 7.65148,-1.58877 10.74131,-1.58877 2.11512,0 4.10352,0.20469 5.97496,0.61406 3.49921,0.80901 6.34535,2.31006 8.53845,4.51291 2.44651,2.43677 3.6649,5.3609 3.6649,8.78212 l 0,40.85006 z"
           style="fill:#ff0000;fill-opacity:1"
           id="path6084" />
      </g>
      <g
         style="fill:#ff0000"
         transform="matrix(0.20319923,0,0,0.20168144,22.537065,996.0081)"
         id="g6086">
        <path
           sodipodi:nodetypes="cccccccccccccc"
           d="m 717.09607,178.5421 -9.39266,0 0,-48.39578 9.39266,-4.1223 0,52.51808 m -4.74684,-62.01172 c -1.68327,6e-5 -3.13089,-0.53859 -4.34284,-1.61594 -1.14461,-1.14456 -1.71693,-2.6595 -1.71692,-4.54484 -1e-5,-1.88519 0.57231,-3.36645 1.71692,-4.44384 1.21195,-1.14453 2.65957,-1.71684 4.34284,-1.71692 1.68326,8e-5 3.09722,0.57239 4.24186,1.71692 1.21192,1.07739 1.8179,2.55865 1.81792,4.44384 -2e-5,1.88534 -0.606,3.40028 -1.81792,4.54484 -1.14464,1.07735 -2.5586,1.616 -4.24186,1.61594"
           style="font-size:98px;font-style:normal;font-variant:normal;font-weight:normal;font-stretch:normal;line-height:125%;letter-spacing:0px;word-spacing:0px;fill:#ff0000;fill-opacity:1;stroke:none;font-family:Ubuntu;-inkscape-font-specification:Ubuntu"
           id="path6088"
           inkscape:connector-curvature="0" />
        <path
           inkscape:connector-curvature="0"
           id="path6090"
           style="font-size:98px;font-style:normal;font-variant:normal;font-weight:normal;font-stretch:normal;line-height:125%;letter-spacing:0px;word-spacing:0px;fill:#ff0000;fill-opacity:1;stroke:none;font-family:Ubuntu;-inkscape-font-specification:Ubuntu"
           d="m 646.47757,178.5421 -9.39266,0 0,-48.39578 9.39266,-4.1223 0,52.51808 m -4.74682,-62.01172 c -1.68329,6e-5 -3.13089,-0.53859 -4.34284,-1.61594 -1.14463,-1.14456 -1.71695,-2.6595 -1.71694,-4.54484 -10e-6,-1.88519 0.57231,-3.36645 1.71694,-4.44384 1.21195,-1.14453 2.65955,-1.71684 4.34284,-1.71692 1.68326,8e-5 3.0972,0.57239 4.24184,1.71692 1.21194,1.07739 1.81792,2.55865 1.81794,4.44384 -2e-5,1.88534 -0.606,3.40028 -1.81794,4.54484 -1.14464,1.07735 -2.55858,1.616 -4.24184,1.61594"
           sodipodi:nodetypes="cccccccccccccc" />
        <path
           inkscape:connector-curvature="0"
           id="path6092"
           style="font-size:98px;font-style:normal;font-variant:normal;font-weight:normal;font-stretch:normal;line-height:125%;letter-spacing:0px;word-spacing:0px;fill:#ff0000;fill-opacity:1;stroke:none;font-family:Ubuntu;-inkscape-font-specification:Ubuntu"
           d="m 674.94906,170.5634 c 3.83782,1e-5 6.66572,-0.50497 8.48368,-1.51494 1.88522,-1.00995 2.82787,-2.62589 2.8279,-4.84782 -3e-5,-2.28924 -0.90901,-4.10718 -2.7269,-5.4538 -1.81797,-1.34661 -4.81418,-2.86155 -8.98868,-4.54484 -2.01994,-0.80794 -3.97252,-1.61592 -5.85778,-2.4239 -1.81795,-0.87529 -3.40022,-1.88525 -4.74682,-3.0299 -1.34663,-1.1446 -2.42393,-2.52487 -3.23188,-4.14084 -0.80798,-1.61591 -1.21196,-3.60216 -1.21196,-5.95878 0,-4.64578 1.71693,-8.31532 5.15082,-11.0086 3.43385,-2.76052 8.11335,-4.14079 14.03848,-4.14084 1.48125,5e-5 2.96252,0.1011 4.44382,0.30298 1.48127,0.13472 2.86154,0.33672 4.14086,0.60598 1.27924,0.20205 2.3902,0.4377 3.33288,0.70698 1.00993,0.26936 1.78422,0.50503 2.3229,0.70698 l -1.71692,8.0797 c -1.01001,-0.5386 -2.59229,-1.07725 -4.74684,-1.61594 -2.15461,-0.60594 -4.74685,-0.90894 -7.7767,-0.90898 -2.62594,4e-5 -4.91517,0.53869 -6.86776,1.61594 -1.9526,1.01002 -2.92889,2.62596 -2.92888,4.84782 -10e-6,1.14466 0.20197,2.15462 0.60598,3.0299 0.4713,0.87533 1.14459,1.68331 2.01992,2.4239 0.94261,0.67335 2.08724,1.31299 3.43388,1.91894 1.34659,0.60601 2.96253,1.24566 4.84782,1.91892 2.49121,0.94268 4.71313,1.8853 6.66574,2.8279 1.95258,0.87532 3.60218,1.91897 4.94882,3.13088 1.41392,1.21198 2.49122,2.69325 3.23188,4.44384 0.74061,1.68329 1.11092,3.77054 1.11096,6.26178 -4e-5,4.84783 -1.81798,8.51735 -5.4538,11.00858 -3.56856,2.49125 -8.6857,3.73686 -15.35142,3.73686 -4.64585,0 -8.28171,-0.40398 -10.9076,-1.21194 -2.62593,-0.74065 -4.41018,-1.31296 -5.3528,-1.71694 l 1.71692,-8.0797 c 1.07729,0.40399 2.79423,1.00997 5.15082,1.81792 2.35659,0.80799 5.48745,1.21197 9.39266,1.21196" />
        <path
           style="font-size:98px;font-style:normal;font-variant:normal;font-weight:normal;font-stretch:normal;line-height:125%;letter-spacing:0px;word-spacing:0px;fill:#ff0000;fill-opacity:1;stroke:none;font-family:Ubuntu;-inkscape-font-specification:Ubuntu"
           d="m 750.30719,123.59962 c -3.29924,5e-5 -6.35069,0.26654 -9.17855,0.80513 -2.82791,0.47136 -4.84269,0.97505 -6.05465,1.51365 l 1.09501,7.79372 c 1.14461,-0.47127 2.86361,-0.91639 5.15286,-1.3204 2.35657,-0.4713 5.08294,-0.70849 8.18018,-0.70856 2.42389,7e-5 4.3801,0.38662 5.8614,1.12722 1.54857,0.67334 2.76388,1.58995 3.63921,2.80187 0.87528,1.14467 1.46682,2.50931 1.80352,4.05788 0.33661,1.48131 0.51524,2.9924 0.51528,4.54097 l 0,2.60863 c -0.26937,-0.0673 -0.74376,-0.15515 -1.41704,-0.28983 -0.67335,-0.13464 -1.47282,-0.28399 -2.41541,-0.41869 -0.87532,-0.20195 -1.82415,-0.31906 -2.83408,-0.38646 -1.00999,-0.13458 -1.98809,-0.19319 -2.93069,-0.19322 -2.96259,3e-5 -5.77682,0.29579 -8.47003,0.90174 -2.69325,0.60601 -5.06529,1.55484 -7.0852,2.83408 -2.01995,1.27932 -3.61887,2.93683 -4.83082,5.02406 -1.14463,2.08727 -1.73911,4.60865 -1.7391,7.50387 -10e-6,3.02989 0.50368,5.60693 1.51367,7.76151 1.00995,2.15459 2.43317,3.90287 4.2511,5.24949 1.81793,1.27927 3.98204,2.2281 6.47331,2.83408 2.49121,0.60596 5.21759,0.90174 8.18018,0.90174 1.57038,0 3.13157,-0.0467 4.702,-0.16103 6.23815,-2.03521 11.76892,-5.19099 15.78066,-9.95147 l 0,-24.73378 c -5e-5,-2.96253 -0.3251,-5.65963 -0.99837,-8.08357 -0.67336,-2.49121 -1.83009,-4.59384 -3.44599,-6.34447 -1.54865,-1.81789 -3.62198,-3.21183 -6.24784,-4.15451 -2.55862,-1.00991 -5.73011,-1.5136 -9.50061,-1.51365 z m 2.22217,29.50018 c 2.15456,2e-5 3.99362,0.11717 5.47492,0.38646 1.54857,0.20202 2.64382,0.46851 3.31717,0.80515 l 0,15.68405 c -1.14466,0.26932 -2.59718,0.44504 -4.34773,0.5797 -1.6833,0.0673 -3.63951,0.12883 -5.8614,0.12882 -3.70322,1e-5 -6.63752,-0.65304 -8.79209,-1.93234 -2.1546,-1.3466 -3.22055,-3.71864 -3.22054,-7.0852 -10e-6,-1.8179 0.4451,-3.23821 1.32043,-4.31552 0.87528,-1.14461 1.94123,-2.03484 3.22054,-2.64084 1.34659,-0.67329 2.7991,-1.11841 4.34773,-1.32043 1.61592,-0.202 3.127,-0.28983 4.54097,-0.28985 z"
           id="path6094"
           inkscape:connector-curvature="0" />
        <path
           id="path6096"
           style="fill:#ff0000;fill-opacity:1"
           d="m 516.85841,178.41539 c -1.06243,0.0877 -2.03714,0.12671 -2.93387,0.12671 -5.03925,0 -8.96733,-1.19889 -11.77449,-3.60642 -2.79742,-2.40753 -4.20099,-5.73129 -4.20099,-9.97127 l 0,-35.08953 -6.10168,0 0,-5.60457 6.10168,0 0,-14.88381 8.89909,-3.16781 0,18.05162 10.01026,0 0,5.60457 -10.01026,0 0,34.84585 c 0,3.34325 0.89673,5.71179 2.6902,7.09588 1.54004,1.14041 3.98656,1.79347 7.32006,1.95917 l 0,4.63961 z"
           inkscape:connector-curvature="0" />
        <path
           id="path6098"
           style="fill:#ff0000;fill-opacity:1"
           d="m 625.84191,178.5421 -8.90884,0 0,-36.33715 c 0,-3.98656 -1.19889,-7.09588 -3.59667,-9.33772 -2.39779,-2.23208 -5.59483,-3.31401 -9.58139,-3.22628 -4.23023,0.078 -8.25579,1.46206 -12.07664,4.14251 l 0,44.75864 -8.90884,0 0,-45.86006 c 5.12697,-3.73313 9.84456,-6.16991 14.15276,-7.31032 4.06455,-1.06243 7.65148,-1.58877 10.74131,-1.58877 2.11512,0 4.10352,0.20469 5.97496,0.61406 3.49921,0.80901 6.34535,2.31006 8.53845,4.51291 2.44651,2.43677 3.6649,5.3609 3.6649,8.78212 l 0,40.85006 z"
           inkscape:connector-curvature="0" />
        <path
           inkscape:connector-curvature="0"
           d="m 527.90809,123.78295 8.90884,0 0,36.33715 c 0,3.98656 1.19889,7.09588 3.59667,9.33772 2.39779,2.23208 5.59483,3.31401 9.58139,3.22628 4.23023,-0.078 8.25579,-1.46206 12.07664,-4.14251 l 0,-44.75864 8.90884,0 0,45.86006 c -5.12697,3.73313 -9.84456,6.16991 -14.15276,7.31032 -4.06455,1.06243 -7.65148,1.58877 -10.74131,1.58877 -2.11512,0 -4.10352,-0.20469 -5.97496,-0.61406 -3.49921,-0.80901 -6.34535,-2.31006 -8.53845,-4.51291 -2.44651,-2.43677 -3.6649,-5.3609 -3.6649,-8.78212 l 0,-40.85006 z"
           style="fill:#ff0000;fill-opacity:1"
           id="path6100" />
      </g>
    </g>
    <g
       id="g6204"
       transform="matrix(0.15845938,0,0,0.15727577,-21.942456,943.39828)">
      <path
         sodipodi:type="arc"
         style="fill:#ffffff;stroke:#fa0000;stroke-width:15;stroke-linejoin:round;stroke-miterlimit:4;stroke-opacity:1;stroke-dasharray:none"
         id="path6106"
         sodipodi:cx="475.3089"
         sodipodi:cy="288.87891"
         sodipodi:rx="128.95978"
         sodipodi:ry="128.95978"
         d="m 604.26868,288.87891 a 128.95978,128.95978 0 1 1 -257.91956,0 128.95978,128.95978 0 1 1 257.91956,0 z"
         transform="matrix(1.1612203,0,0,1.1612203,-250.71285,187.85566)" />
      <g
         transform="matrix(0.83535904,0,0,0.83535904,1182.4593,-76.916423)"
         id="g6108">
        <path
           style="color:#000000;fill:#ff0000;fill-opacity:1;fill-rule:nonzero;stroke:none;stroke-width:1;marker:none;visibility:visible;display:inline;overflow:visible"
           d="m -1060.4482,584.47967 c -67.844,0 -63.6079,29.42145 -63.6079,29.42145 l 0.08,30.48029 64.7409,0 0,9.15165 -90.4578,0 c 0,0 -43.4135,-4.92342 -43.4135,63.5323 0,68.45567 37.8917,66.02805 37.8917,66.02805 l 22.6157,0 0,-31.76619 c 0,0 -1.2198,-37.89225 37.2856,-37.89225 38.5085,0 64.2144,0 64.2144,0 0,0 36.07693,0.58302 36.07693,-34.86719 0,-35.4502 0,-58.61598 0,-58.61598 0,-1e-5 5.47748,-35.47213 -65.42323,-35.47213 z m -35.6977,20.49668 c 6.4416,0 11.6465,5.20618 11.6465,11.6476 0,6.44137 -5.2049,11.64752 -11.6465,11.64752 -6.4415,10e-6 -11.6484,-5.20615 -11.6484,-11.64752 0,-6.44142 5.2069,-11.6476 11.6484,-11.6476 z"
           id="path6102"
           inkscape:connector-curvature="0" />
        <path
           id="path6104"
           d="m -1058.5207,850.33732 c 67.84448,0 63.60773,-29.42145 63.60773,-29.42145 l -0.0744,-30.48029 -64.74213,0 0,-9.15165 90.45748,0 c 0,0 43.41372,4.9234 43.41372,-63.53233 3e-5,-68.45567 -37.89243,-66.02802 -37.89243,-66.02802 l -22.61444,0 0,31.76615 c 0,0 1.21898,37.89225 -37.28743,37.89225 -38.5052,0 -64.2128,0 -64.2128,0 0,0 -36.0782,-0.58302 -36.0782,34.86723 0,35.45017 0,58.61598 0,58.61598 0,0 -5.4773,35.47213 65.4231,35.47213 z m 35.698,-20.49669 c -6.4407,0 -11.6467,-5.20618 -11.6467,-11.64759 0,-6.44138 5.206,-11.64753 11.6467,-11.64753 6.4414,0 11.6492,5.20615 11.6492,11.64753 0,6.44141 -5.2078,11.64759 -11.6492,11.64759 z"
           style="color:#000000;fill:#ff0000;fill-opacity:1;fill-rule:nonzero;stroke:none;stroke-width:1;marker:none;visibility:visible;display:inline;overflow:visible"
           inkscape:connector-curvature="0" />
      </g>
    </g>
  </g>
</svg>
